<svg xmlns="http://www.w3.org/2000/svg" viewBox="0 0 800 600">
<defs><radialGradient id="mm1"><stop offset="0%" stop-color="#8a4a3a"/><stop offset="100%" stop-color="#3a1a0a"/></radialGradient><radialGradient id="mm2"><stop offset="0%" stop-color="#c6663d"/><stop offset="100%" stop-color="#5a2a1a"/></radialGradient></defs>
<rect width="800" height="600" fill="url(#mm1)"/>
<circle cx="400" cy="290" r="220" fill="url(#mm2)" opacity=".8"/>
<circle cx="400" cy="290" r="180" fill="none" stroke="#d4a056" stroke-width="1" opacity=".3"/>
<circle cx="400" cy="290" r="140" fill="none" stroke="#d4a056" stroke-width="1" opacity=".4"/>
<circle cx="400" cy="290" r="100" fill="none" stroke="#d4a056" stroke-width="1" opacity=".5"/>
<circle cx="400" cy="290" r="60" fill="none" stroke="#d4a056" stroke-width="1.5" opacity=".6"/>
<circle cx="400" cy="290" r="20" fill="#e0b470" opacity=".8"/>
<!-- Mirror dots along outer ring -->
<g fill="#e0b470" opacity=".7">
<circle cx="400" cy="70" r="6"/><circle cx="400" cy="510" r="6"/>
<circle cx="180" cy="290" r="6"/><circle cx="620" cy="290" r="6"/>
<circle cx="244" cy="134" r="5"/><circle cx="556" cy="134" r="5"/>
<circle cx="244" cy="446" r="5"/><circle cx="556" cy="446" r="5"/>
<circle cx="222" cy="200" r="4"/><circle cx="578" cy="200" r="4"/>
<circle cx="222" cy="380" r="4"/><circle cx="578" cy="380" r="4"/>
<circle cx="340" cy="100" r="4"/><circle cx="460" cy="100" r="4"/>
<circle cx="340" cy="480" r="4"/><circle cx="460" cy="480" r="4"/>
</g>
<!-- Inner mirror dots -->
<g fill="#f0e6da" opacity=".5">
<circle cx="400" cy="190" r="3"/><circle cx="400" cy="390" r="3"/>
<circle cx="300" cy="290" r="3"/><circle cx="500" cy="290" r="3"/>
<circle cx="329" cy="219" r="2.5"/><circle cx="471" cy="219" r="2.5"/>
<circle cx="329" cy="361" r="2.5"/><circle cx="471" cy="361" r="2.5"/>
</g>
</svg>